<?xml version="1.0" standalone="no"?>
<!DOCTYPE svg PUBLIC "-//W3C//DTD SVG 20010904//EN"
 "http://www.w3.org/TR/2001/REC-SVG-20010904/DTD/svg10.dtd">
<svg version="1.0" xmlns="http://www.w3.org/2000/svg"
 width="256.000000pt" height="256.000000pt" viewBox="0 0 256.000000 256.000000"
 preserveAspectRatio="xMidYMid meet">

<g transform="translate(0.000000,256.000000) scale(0.100000,-0.100000)"
fill="#000000" stroke="none">
<path d="M145 2549 c-51 -25 -50 -13 -53 -640 -2 -376 1 -596 7 -613 11 -28
39 -34 59 -14 9 9 12 115 12 415 l0 403 853 0 c470 0 902 -3 960 -7 l107 -6 0
-102 0 -103 -53 -108 c-105 -215 -122 -255 -110 -272 5 -10 21 -17 34 -17 20
0 30 13 61 75 21 41 39 79 41 84 4 11 167 -63 167 -75 0 -11 -29 -75 -100
-224 -34 -71 -79 -166 -100 -210 -121 -255 -187 -392 -196 -408 -10 -17 -16
-15 -90 19 -43 21 -81 39 -83 41 -2 1 58 133 134 293 116 243 136 292 125 305
-7 8 -24 15 -37 15 -21 0 -31 -13 -71 -100 l-46 -100 -564 -2 c-525 -3 -566
-4 -576 -20 -8 -13 -8 -23 0 -35 10 -17 49 -18 553 -21 297 -1 541 -5 541 -8
0 -3 -19 -46 -41 -95 l-42 -89 -631 -2 -631 -3 -3 -24 c-8 -51 -14 -51 630
-51 l598 0 -20 -40 c-12 -24 -20 -59 -20 -90 l0 -50 -574 0 c-540 0 -575 -1
-596 -18 -19 -16 -21 -22 -11 -40 l12 -22 580 0 580 0 -7 -128 c-7 -128 -7
-129 17 -145 13 -10 29 -17 36 -17 7 0 86 68 175 150 l163 151 77 157 76 157
1 -417 1 -418 -960 0 -960 0 0 533 c0 401 -3 536 -12 545 -20 20 -48 14 -59
-15 -6 -17 -9 -216 -7 -552 3 -566 2 -556 55 -580 33 -15 1933 -15 1966 0 53
24 52 14 57 579 l5 525 143 296 c155 324 162 349 121 416 -29 46 -160 113
-223 113 l-45 0 -3 278 c-3 297 -5 308 -55 331 -32 15 -1939 14 -1968 0z
m1943 -220 l3 -146 -107 -6 c-59 -4 -491 -7 -961 -7 l-853 0 0 148 c0 82 3
152 7 155 3 4 434 6 957 5 l951 -3 3 -146z m-261 -1713 c3 -2 -15 -22 -38 -44
l-43 -39 -57 26 c-57 25 -58 27 -59 66 0 89 1 89 103 39 49 -24 92 -46 94 -48z
m-171 -165 c-30 -30 -40 -24 -31 18 6 28 8 29 31 19 l25 -12 -25 -25z"/>
<path d="M392 2348 c-7 -7 -12 -19 -12 -28 0 -39 10 -40 451 -40 371 0 428 2
439 15 10 12 10 21 2 40 l-12 25 -428 0 c-320 0 -431 -3 -440 -12z"/>
<path d="M1440 2345 c-26 -32 13 -81 48 -59 34 22 22 74 -18 74 -10 0 -23 -7
-30 -15z"/>
<path d="M1630 2345 c-26 -32 13 -81 48 -59 34 22 22 74 -18 74 -10 0 -23 -7
-30 -15z"/>
<path d="M1826 2344 c-19 -19 -20 -25 -3 -48 19 -26 61 -18 65 12 7 44 -32 67
-62 36z"/>
<path d="M485 1837 c-18 -14 -20 -29 -23 -164 -3 -200 -5 -197 120 -201 94 -3
98 -2 128 25 43 39 51 102 19 153 -16 25 -22 48 -20 82 2 39 -2 51 -27 79 -28
31 -35 34 -103 37 -54 3 -79 0 -94 -11z m140 -102 c0 -28 -3 -30 -42 -33 l-43
-3 0 36 0 36 43 -3 c39 -3 42 -5 42 -33z m40 -150 c0 -30 0 -30 -62 -33 l-63
-3 0 36 0 36 63 -3 c62 -3 62 -3 62 -33z"/>
<path d="M842 1838 c-18 -18 -17 -342 2 -357 9 -8 51 -11 121 -9 88 2 110 6
119 20 8 13 6 22 -8 37 -16 18 -31 21 -93 21 l-73 0 0 131 c0 72 -5 139 -10
150 -12 21 -40 25 -58 7z"/>
<path d="M1230 1843 c-23 -9 -60 -45 -76 -75 -20 -38 -19 -180 2 -224 25 -52
74 -77 140 -72 99 8 140 76 132 215 -5 80 -22 113 -71 143 -31 19 -93 25 -127
13z m104 -95 c11 -15 16 -45 16 -88 0 -85 -16 -110 -70 -110 -51 0 -60 17 -60
114 0 86 12 106 65 106 24 0 39 -7 49 -22z"/>
<path d="M1553 1840 c-47 -19 -63 -65 -63 -182 0 -62 5 -118 12 -133 18 -39
58 -55 135 -55 81 0 129 23 139 67 3 15 8 34 10 42 8 25 -17 91 -40 106 -41
27 -89 30 -109 7 -26 -29 -8 -62 34 -62 33 0 44 -17 35 -55 -6 -23 -10 -25
-72 -25 l-65 0 3 108 3 107 65 3 c88 3 108 9 115 33 12 38 -11 49 -99 48 -44
0 -91 -4 -103 -9z"/>
</g>
</svg>
